<svg width="32" height="32" viewBox="0 0 32 32" fill="none" xmlns="http://www.w3.org/2000/svg">
<path d="M15.9999 9.59072C12.453 9.59072 9.59053 12.4532 9.59053 16.0001C9.59053 19.547 12.453 22.4095 15.9999 22.4095C19.5468 22.4095 22.4093 19.547 22.4093 16.0001C22.4093 12.4532 19.5468 9.59072 15.9999 9.59072ZM15.9999 20.1657C13.7062 20.1657 11.8343 18.2939 11.8343 16.0001C11.8343 13.7064 13.7062 11.8345 15.9999 11.8345C18.2937 11.8345 20.1655 13.7064 20.1655 16.0001C20.1655 18.2939 18.2937 20.1657 15.9999 20.1657ZM22.6718 7.83447C21.8437 7.83447 21.1749 8.50322 21.1749 9.33135C21.1749 10.1595 21.8437 10.8282 22.6718 10.8282C23.4999 10.8282 24.1687 10.1626 24.1687 9.33135C24.1689 9.13471 24.1304 8.93995 24.0552 8.75823C23.9801 8.57651 23.8698 8.4114 23.7308 8.27235C23.5917 8.1333 23.4266 8.02305 23.2449 7.94792C23.0632 7.87278 22.8684 7.83423 22.6718 7.83447ZM28.4937 16.0001C28.4937 14.2751 28.5093 12.5657 28.4124 10.8439C28.3155 8.84385 27.8593 7.06885 26.3968 5.60635C24.9312 4.14072 23.1593 3.6876 21.1593 3.59072C19.4343 3.49385 17.7249 3.50947 16.003 3.50947C14.278 3.50947 12.5687 3.49385 10.8468 3.59072C8.84678 3.6876 7.07178 4.14385 5.60928 5.60635C4.14365 7.07197 3.69053 8.84385 3.59365 10.8439C3.49678 12.5689 3.5124 14.2782 3.5124 16.0001C3.5124 17.722 3.49678 19.4345 3.59365 21.1564C3.69053 23.1564 4.14678 24.9314 5.60928 26.3939C7.0749 27.8595 8.84678 28.3126 10.8468 28.4095C12.5718 28.5064 14.2812 28.4907 16.003 28.4907C17.728 28.4907 19.4374 28.5064 21.1593 28.4095C23.1593 28.3126 24.9343 27.8564 26.3968 26.3939C27.8624 24.9282 28.3155 23.1564 28.4124 21.1564C28.5124 19.4345 28.4937 17.7251 28.4937 16.0001ZM25.7437 23.3689C25.5155 23.9376 25.2405 24.3626 24.7999 24.8001C24.3593 25.2407 23.9374 25.5157 23.3687 25.7439C21.7249 26.397 17.8218 26.2501 15.9999 26.2501C14.178 26.2501 10.2718 26.397 8.62803 25.747C8.05928 25.5189 7.63428 25.2439 7.19678 24.8032C6.75615 24.3626 6.48115 23.9407 6.25303 23.372C5.60303 21.7251 5.7499 17.822 5.7499 16.0001C5.7499 14.1782 5.60303 10.272 6.25303 8.62822C6.48115 8.05947 6.75615 7.63448 7.19678 7.19697C7.6374 6.75947 8.05928 6.48135 8.62803 6.25322C10.2718 5.60322 14.178 5.7501 15.9999 5.7501C17.8218 5.7501 21.728 5.60322 23.3718 6.25322C23.9405 6.48135 24.3655 6.75635 24.803 7.19697C25.2437 7.6376 25.5187 8.05947 25.7468 8.62822C26.3968 10.272 26.2499 14.1782 26.2499 16.0001C26.2499 17.822 26.3968 21.7251 25.7437 23.3689Z" fill="#F4F4F4"/>
</svg>
