<svg width="178" height="51" viewBox="0 0 178 51" fill="none" xmlns="http://www.w3.org/2000/svg">
<path d="M0 27.972V0.503998H16.59V4.62H4.872V12.39H14.868V16.506H4.872V27.972H0Z" fill="#0D0D0D"/>
<path d="M21.4102 27.972V0.503998H26.2822V23.856H37.7062V27.972H21.4102Z" fill="#0D0D0D"/>
<path d="M51.8477 28.476C49.4677 28.476 47.3677 27.902 45.5477 26.754C43.7277 25.578 42.2997 23.926 41.2637 21.798C40.2557 19.642 39.7517 17.08 39.7517 14.112C39.7517 11.144 40.2557 8.61 41.2637 6.51C42.2997 4.41 43.7277 2.8 45.5477 1.68C47.3677 0.559999 49.4677 0 51.8477 0C54.2557 0 56.3697 0.559999 58.1897 1.68C60.0097 2.8 61.4237 4.41 62.4317 6.51C63.4677 8.61 63.9857 11.144 63.9857 14.112C63.9857 17.08 63.4677 19.642 62.4317 21.798C61.4237 23.926 60.0097 25.578 58.1897 26.754C56.3697 27.902 54.2557 28.476 51.8477 28.476ZM51.8477 24.234C54.0037 24.234 55.7257 23.324 57.0137 21.504C58.3017 19.656 58.9457 17.192 58.9457 14.112C58.9457 11.032 58.3017 8.624 57.0137 6.888C55.7257 5.124 54.0037 4.242 51.8477 4.242C49.6917 4.242 47.9697 5.124 46.6817 6.888C45.3937 8.624 44.7497 11.032 44.7497 14.112C44.7497 17.192 45.3937 19.656 46.6817 21.504C47.9697 23.324 49.6917 24.234 51.8477 24.234Z" fill="#0D0D0D"/>
<path d="M79.7705 28.476C77.6705 28.476 75.8365 28.056 74.2685 27.216C72.7005 26.376 71.4825 25.032 70.6145 23.184C69.7745 21.336 69.3545 18.914 69.3545 15.918V0.503998H74.2265V16.296C74.2265 18.284 74.4505 19.866 74.8985 21.042C75.3745 22.19 76.0325 23.016 76.8725 23.52C77.7125 23.996 78.6785 24.234 79.7705 24.234C80.8905 24.234 81.8705 23.996 82.7105 23.52C83.5785 23.016 84.2505 22.19 84.7265 21.042C85.2305 19.866 85.4825 18.284 85.4825 16.296V0.503998H90.1445V15.918C90.1445 18.914 89.7245 21.336 88.8845 23.184C88.0445 25.032 86.8405 26.376 85.2725 27.216C83.7325 28.056 81.8985 28.476 79.7705 28.476Z" fill="#0D0D0D"/>
<path d="M97.002 27.972V0.503998H106.284C108.188 0.503998 109.896 0.755998 111.408 1.26C112.948 1.764 114.152 2.618 115.02 3.822C115.916 4.998 116.364 6.608 116.364 8.652C116.364 10.752 115.86 12.446 114.852 13.734C113.872 15.022 112.556 15.946 110.904 16.506L117.456 27.972H111.996L106.074 17.22H101.874V27.972H97.002ZM101.874 13.356H105.78C107.656 13.356 109.084 12.964 110.064 12.18C111.072 11.368 111.576 10.192 111.576 8.652C111.576 7.084 111.072 5.992 110.064 5.376C109.084 4.732 107.656 4.41 105.78 4.41H101.874V13.356Z" fill="#0D0D0D"/>
<path d="M121.857 27.972V0.503998H126.729V27.972H121.857Z" fill="#0D0D0D"/>
<path d="M141.733 28.476C139.885 28.476 138.093 28.126 136.357 27.426C134.649 26.726 133.137 25.732 131.821 24.444L134.677 21.126C135.657 22.05 136.777 22.806 138.037 23.394C139.297 23.954 140.557 24.234 141.817 24.234C143.385 24.234 144.575 23.912 145.387 23.268C146.199 22.624 146.605 21.77 146.605 20.706C146.605 19.558 146.199 18.732 145.387 18.228C144.603 17.724 143.595 17.206 142.363 16.674L138.583 15.036C137.687 14.644 136.805 14.14 135.937 13.524C135.097 12.908 134.397 12.124 133.837 11.172C133.305 10.22 133.039 9.072 133.039 7.728C133.039 6.272 133.431 4.97 134.215 3.822C135.027 2.646 136.119 1.722 137.491 1.05C138.891 0.35 140.487 0 142.279 0C143.875 0 145.415 0.322 146.899 0.966C148.383 1.582 149.657 2.422 150.721 3.486L148.243 6.594C147.375 5.866 146.451 5.292 145.471 4.872C144.519 4.452 143.455 4.242 142.279 4.242C140.991 4.242 139.941 4.536 139.129 5.124C138.345 5.684 137.953 6.468 137.953 7.476C137.953 8.176 138.149 8.764 138.541 9.24C138.961 9.688 139.507 10.08 140.179 10.416C140.851 10.724 141.565 11.032 142.321 11.34L146.059 12.894C147.683 13.594 149.013 14.518 150.049 15.666C151.085 16.786 151.603 18.34 151.603 20.328C151.603 21.812 151.211 23.17 150.427 24.402C149.643 25.634 148.509 26.628 147.025 27.384C145.569 28.112 143.805 28.476 141.733 28.476Z" fill="#0D0D0D"/>
<path d="M156.598 27.972V0.503998H161.47V11.55H172.6V0.503998H177.472V27.972H172.6V15.792H161.47V27.972H156.598Z" fill="#0D0D0D"/>
<path d="M0.361572 49.9719V38.1999H7.47157V39.9639H2.44957V43.2939H6.73357V45.0579H2.44957V49.9719H0.361572Z" fill="#0D0D0D"/>
<path d="M20.3374 49.9719V38.1999H24.3154C25.1314 38.1999 25.8634 38.3079 26.5114 38.5239C27.1714 38.7399 27.6874 39.1059 28.0594 39.6219C28.4434 40.1259 28.6354 40.8159 28.6354 41.6919C28.6354 42.5919 28.4194 43.3179 27.9874 43.8699C27.5674 44.4219 27.0034 44.8179 26.2954 45.0579L29.1034 49.9719H26.7634L24.2254 45.3639H22.4254V49.9719H20.3374ZM22.4254 43.7079H24.0994C24.9034 43.7079 25.5154 43.5399 25.9354 43.2039C26.3674 42.8559 26.5834 42.3519 26.5834 41.6919C26.5834 41.0199 26.3674 40.5519 25.9354 40.2879C25.5154 40.0119 24.9034 39.8739 24.0994 39.8739H22.4254V43.7079Z" fill="#0D0D0D"/>
<path d="M44.0962 43.7079L43.6822 45.1479H46.6882L46.2742 43.7079C46.0822 43.0839 45.8962 42.4419 45.7162 41.7819C45.5482 41.1219 45.3802 40.4679 45.2122 39.8199H45.1402C44.9842 40.4799 44.8162 41.1399 44.6362 41.7999C44.4682 42.4479 44.2882 43.0839 44.0962 43.7079ZM40.1542 49.9719L43.9882 38.1999H46.4362L50.2702 49.9719H48.0742L47.1562 46.7859H43.1962L42.2782 49.9719H40.1542Z" fill="#0D0D0D"/>
<path d="M67.2776 50.1879C66.2216 50.1879 65.2736 49.9539 64.4336 49.4859C63.5936 49.0179 62.9336 48.3339 62.4536 47.4339C61.9736 46.5219 61.7336 45.4179 61.7336 44.1219C61.7336 42.8379 61.9796 41.7399 62.4716 40.8279C62.9636 39.9039 63.6296 39.2019 64.4696 38.7219C65.3096 38.2299 66.2516 37.9839 67.2956 37.9839C68.1356 37.9839 68.8436 38.1399 69.4196 38.4519C70.0076 38.7519 70.4876 39.0939 70.8596 39.4779L69.7436 40.8279C69.4436 40.5399 69.1076 40.2999 68.7356 40.1079C68.3756 39.9039 67.9196 39.8019 67.3676 39.8019C66.3236 39.8019 65.4776 40.1859 64.8296 40.9539C64.1936 41.7099 63.8756 42.7479 63.8756 44.0679C63.8756 45.4119 64.1816 46.4679 64.7936 47.2359C65.4056 47.9919 66.2996 48.3699 67.4756 48.3699C67.8116 48.3699 68.1296 48.3279 68.4296 48.2439C68.7296 48.1479 68.9756 48.0159 69.1676 47.8479V45.3099H66.9356V43.5999H71.0396V48.7839C70.6436 49.1799 70.1156 49.5159 69.4556 49.7919C68.8076 50.0559 68.0816 50.1879 67.2776 50.1879Z" fill="#0D0D0D"/>
<path d="M84.4483 49.9719V38.1999H88.4263C89.2423 38.1999 89.9743 38.3079 90.6223 38.5239C91.2823 38.7399 91.7983 39.1059 92.1703 39.6219C92.5543 40.1259 92.7463 40.8159 92.7463 41.6919C92.7463 42.5919 92.5303 43.3179 92.0983 43.8699C91.6783 44.4219 91.1143 44.8179 90.4063 45.0579L93.2143 49.9719H90.8743L88.3363 45.3639H86.5363V49.9719H84.4483ZM86.5363 43.7079H88.2103C89.0143 43.7079 89.6263 43.5399 90.0463 43.2039C90.4783 42.8559 90.6943 42.3519 90.6943 41.6919C90.6943 41.0199 90.4783 40.5519 90.0463 40.2879C89.6263 40.0119 89.0143 39.8739 88.2103 39.8739H86.5363V43.7079Z" fill="#0D0D0D"/>
<path d="M108.207 43.7079L107.793 45.1479H110.799L110.385 43.7079C110.193 43.0839 110.007 42.4419 109.827 41.7819C109.659 41.1219 109.491 40.4679 109.323 39.8199H109.251C109.095 40.4799 108.927 41.1399 108.747 41.7999C108.579 42.4479 108.399 43.0839 108.207 43.7079ZM104.265 49.9719L108.099 38.1999H110.547L114.381 49.9719H112.185L111.267 46.7859H107.307L106.389 49.9719H104.265Z" fill="#0D0D0D"/>
<path d="M126.632 49.9719V38.1999H128.774L132.446 44.8239L133.652 47.3259H133.724C133.676 46.7259 133.616 46.0719 133.544 45.3639C133.484 44.6559 133.454 43.9719 133.454 43.3119V38.1999H135.452V49.9719H133.31L129.638 43.3479L128.432 40.8459H128.36C128.408 41.4699 128.462 42.1239 128.522 42.8079C128.594 43.4919 128.63 44.1639 128.63 44.8239V49.9719H126.632Z" fill="#0D0D0D"/>
<path d="M153.943 50.1879C152.959 50.1879 152.065 49.9539 151.261 49.4859C150.457 49.0179 149.815 48.3339 149.335 47.4339C148.867 46.5219 148.633 45.4179 148.633 44.1219C148.633 42.8379 148.873 41.7399 149.353 40.8279C149.845 39.9039 150.499 39.2019 151.315 38.7219C152.131 38.2299 153.031 37.9839 154.015 37.9839C154.759 37.9839 155.419 38.1339 155.995 38.4339C156.571 38.7339 157.045 39.0819 157.417 39.4779L156.301 40.8279C156.001 40.5159 155.665 40.2699 155.293 40.0899C154.933 39.8979 154.525 39.8019 154.069 39.8019C153.433 39.8019 152.863 39.9759 152.359 40.3239C151.867 40.6599 151.477 41.1459 151.189 41.7819C150.913 42.4179 150.775 43.1799 150.775 44.0679C150.775 45.4119 151.069 46.4679 151.657 47.2359C152.245 47.9919 153.031 48.3699 154.015 48.3699C154.543 48.3699 155.011 48.2619 155.419 48.0459C155.827 47.8179 156.199 47.5239 156.535 47.1639L157.651 48.4779C157.171 49.0299 156.619 49.4559 155.995 49.7559C155.383 50.0439 154.699 50.1879 153.943 50.1879Z" fill="#0D0D0D"/>
<path d="M170.416 49.9719V38.1999H177.508V39.9639H172.504V42.9699H176.734V44.7339H172.504V48.2079H177.688V49.9719H170.416Z" fill="#0D0D0D"/>
</svg>
