<svg width="272" height="69" viewBox="0 0 272 69" fill="none" xmlns="http://www.w3.org/2000/svg">
<path d="M0 42.624V0.767998H25.28V7.04H7.424V18.88H22.656V25.152H7.424V42.624H0Z" fill="#F4F4F4"/>
<path d="M32.625 42.624V0.767998H40.049V36.352H57.457V42.624H32.625Z" fill="#F4F4F4"/>
<path d="M79.006 43.392C75.3793 43.392 72.1793 42.5173 69.406 40.768C66.6327 38.976 64.4567 36.4587 62.878 33.216C61.342 29.9307 60.574 26.0267 60.574 21.504C60.574 16.9813 61.342 13.12 62.878 9.92C64.4567 6.72 66.6327 4.26667 69.406 2.56C72.1793 0.853333 75.3793 0 79.006 0C82.6753 0 85.8967 0.853333 88.67 2.56C91.4433 4.26667 93.598 6.72 95.134 9.92C96.7127 13.12 97.502 16.9813 97.502 21.504C97.502 26.0267 96.7127 29.9307 95.134 33.216C93.598 36.4587 91.4433 38.976 88.67 40.768C85.8967 42.5173 82.6753 43.392 79.006 43.392ZM79.006 36.928C82.2913 36.928 84.9153 35.5413 86.878 32.768C88.8407 29.952 89.822 26.1973 89.822 21.504C89.822 16.8107 88.8407 13.1413 86.878 10.496C84.9153 7.808 82.2913 6.464 79.006 6.464C75.7207 6.464 73.0967 7.808 71.134 10.496C69.1713 13.1413 68.19 16.8107 68.19 21.504C68.19 26.1973 69.1713 29.952 71.134 32.768C73.0967 35.5413 75.7207 36.928 79.006 36.928Z" fill="#F4F4F4"/>
<path d="M121.555 43.392C118.355 43.392 115.56 42.752 113.171 41.472C110.782 40.192 108.926 38.144 107.603 35.328C106.323 32.512 105.683 28.8213 105.683 24.256V0.767998H113.107V24.832C113.107 27.8613 113.448 30.272 114.131 32.064C114.856 33.8133 115.859 35.072 117.139 35.84C118.419 36.5653 119.891 36.928 121.555 36.928C123.262 36.928 124.755 36.5653 126.035 35.84C127.358 35.072 128.382 33.8133 129.107 32.064C129.875 30.272 130.259 27.8613 130.259 24.832V0.767998H137.363V24.256C137.363 28.8213 136.723 32.512 135.443 35.328C134.163 38.144 132.328 40.192 129.939 41.472C127.592 42.752 124.798 43.392 121.555 43.392Z" fill="#F4F4F4"/>
<path d="M147.812 42.624V0.767998H161.956C164.858 0.767998 167.461 1.152 169.765 1.92C172.111 2.688 173.946 3.98933 175.269 5.824C176.634 7.616 177.317 10.0693 177.317 13.184C177.317 16.384 176.548 18.9653 175.012 20.928C173.519 22.8907 171.514 24.2987 168.997 25.152L178.981 42.624H170.661L161.637 26.24H155.237V42.624H147.812ZM155.237 20.352H161.189C164.047 20.352 166.223 19.7547 167.717 18.56C169.253 17.3227 170.021 15.5307 170.021 13.184C170.021 10.7947 169.253 9.13066 167.717 8.192C166.223 7.21066 164.047 6.72 161.189 6.72H155.237V20.352Z" fill="#F4F4F4"/>
<path d="M185.688 42.624V0.767998H193.112V42.624H185.688Z" fill="#F4F4F4"/>
<path d="M215.974 43.392C213.158 43.392 210.427 42.8587 207.782 41.792C205.179 40.7253 202.875 39.2107 200.87 37.248L205.222 32.192C206.715 33.6 208.422 34.752 210.342 35.648C212.262 36.5013 214.182 36.928 216.102 36.928C218.491 36.928 220.305 36.4373 221.542 35.456C222.779 34.4747 223.398 33.1733 223.398 31.552C223.398 29.8027 222.779 28.544 221.542 27.776C220.347 27.008 218.811 26.2187 216.934 25.408L211.174 22.912C209.809 22.3147 208.465 21.5467 207.142 20.608C205.862 19.6693 204.795 18.4747 203.942 17.024C203.131 15.5733 202.726 13.824 202.726 11.776C202.726 9.55733 203.323 7.57333 204.518 5.824C205.755 4.032 207.419 2.624 209.51 1.6C211.643 0.533333 214.075 0 216.806 0C219.238 0 221.585 0.490667 223.846 1.472C226.107 2.41066 228.049 3.69066 229.67 5.312L225.894 10.048C224.571 8.93867 223.163 8.064 221.67 7.424C220.219 6.784 218.598 6.464 216.806 6.464C214.843 6.464 213.243 6.912 212.006 7.808C210.811 8.66133 210.214 9.856 210.214 11.392C210.214 12.4587 210.513 13.3547 211.11 14.08C211.75 14.7627 212.582 15.36 213.606 15.872C214.63 16.3413 215.718 16.8107 216.87 17.28L222.566 19.648C225.041 20.7147 227.067 22.1227 228.646 23.872C230.225 25.5787 231.014 27.9467 231.014 30.976C231.014 33.2373 230.417 35.3067 229.222 37.184C228.027 39.0613 226.299 40.576 224.038 41.728C221.819 42.8373 219.131 43.392 215.974 43.392Z" fill="#F4F4F4"/>
<path d="M238.625 42.624V0.767998H246.049V17.6H263.009V0.767998H270.433V42.624H263.009V24.064H246.049V42.624H238.625Z" fill="#F4F4F4"/>
<path d="M0.104675 68.6241V52.9281H9.58467V55.2801H2.88868V59.7201H8.60068V62.0721H2.88868V68.6241H0.104675Z" fill="#F4F4F4"/>
<path d="M31.0591 68.6241V52.9281H36.3631C37.4511 52.9281 38.427 53.0721 39.291 53.3601C40.1711 53.6481 40.8591 54.1361 41.3551 54.8241C41.8671 55.4961 42.1231 56.4161 42.1231 57.5841C42.1231 58.7841 41.8351 59.7521 41.2591 60.4881C40.6991 61.2241 39.9471 61.7521 39.0031 62.0721L42.7471 68.6241H39.6271L36.2431 62.4801H33.8431V68.6241H31.0591ZM33.8431 60.2721H36.0751C37.1471 60.2721 37.9631 60.0481 38.5231 59.6001C39.0991 59.1361 39.3871 58.4641 39.3871 57.5841C39.3871 56.6881 39.0991 56.0641 38.5231 55.7121C37.9631 55.3441 37.1471 55.1601 36.0751 55.1601H33.8431V60.2721Z" fill="#F4F4F4"/>
<path d="M67.0576 60.2721L66.5056 62.1921H70.5136L69.9616 60.2721C69.7056 59.4401 69.4576 58.5841 69.2176 57.7041C68.9936 56.8241 68.7696 55.9521 68.5456 55.0881H68.4496C68.2416 55.9681 68.0176 56.8481 67.7776 57.7281C67.5536 58.5921 67.3136 59.4401 67.0576 60.2721ZM61.8016 68.6241L66.9136 52.9281H70.1776L75.2896 68.6241H72.3616L71.1376 64.3761H65.8576L64.6336 68.6241H61.8016Z" fill="#F4F4F4"/>
<path d="M102.286 68.9121C100.878 68.9121 99.614 68.6001 98.494 67.9761C97.374 67.3521 96.494 66.4401 95.854 65.2401C95.214 64.0241 94.894 62.5521 94.894 60.8241C94.894 59.1121 95.222 57.6481 95.878 56.4321C96.534 55.2001 97.422 54.2641 98.542 53.6241C99.662 52.9681 100.918 52.6401 102.31 52.6401C103.43 52.6401 104.374 52.8481 105.142 53.2641C105.926 53.6641 106.566 54.1201 107.062 54.6321L105.574 56.4321C105.174 56.0481 104.726 55.7281 104.23 55.4721C103.75 55.2001 103.142 55.0641 102.406 55.0641C101.014 55.0641 99.886 55.5761 99.022 56.6001C98.174 57.6081 97.75 58.9921 97.75 60.7521C97.75 62.5441 98.158 63.9521 98.974 64.9761C99.79 65.9841 100.982 66.4881 102.55 66.4881C102.998 66.4881 103.422 66.4321 103.822 66.3201C104.222 66.1921 104.55 66.0161 104.806 65.7921V62.4081H101.83V60.1281H107.302V67.0401C106.774 67.5681 106.07 68.0161 105.19 68.3841C104.326 68.7361 103.358 68.9121 102.286 68.9121Z" fill="#F4F4F4"/>
<path d="M129.5 68.6241V52.9281H134.804C135.892 52.9281 136.868 53.0721 137.732 53.3601C138.612 53.6481 139.3 54.1361 139.796 54.8241C140.308 55.4961 140.564 56.4161 140.564 57.5841C140.564 58.7841 140.276 59.7521 139.7 60.4881C139.14 61.2241 138.388 61.7521 137.444 62.0721L141.188 68.6241H138.068L134.684 62.4801H132.284V68.6241H129.5ZM132.284 60.2721H134.516C135.588 60.2721 136.404 60.0481 136.964 59.6001C137.54 59.1361 137.828 58.4641 137.828 57.5841C137.828 56.6881 137.54 56.0641 136.964 55.7121C136.404 55.3441 135.588 55.1601 134.516 55.1601H132.284V60.2721Z" fill="#F4F4F4"/>
<path d="M165.499 60.2721L164.947 62.1921H168.955L168.403 60.2721C168.147 59.4401 167.899 58.5841 167.659 57.7041C167.435 56.8241 167.211 55.9521 166.987 55.0881H166.891C166.683 55.9681 166.459 56.8481 166.219 57.7281C165.995 58.5921 165.755 59.4401 165.499 60.2721ZM160.243 68.6241L165.355 52.9281H168.619L173.731 68.6241H170.803L169.579 64.3761H164.299L163.075 68.6241H160.243Z" fill="#F4F4F4"/>
<path d="M194.386 68.6241V52.9281H197.242L202.138 61.7601L203.746 65.0961H203.842C203.778 64.2961 203.698 63.4241 203.602 62.4801C203.522 61.5361 203.482 60.6241 203.482 59.7441V52.9281H206.146V68.6241H203.29L198.394 59.7921L196.786 56.4561H196.69C196.754 57.2881 196.826 58.1601 196.906 59.0721C197.002 59.9841 197.05 60.8801 197.05 61.7601V68.6241H194.386Z" fill="#F4F4F4"/>
<path d="M235.12 68.9121C233.808 68.9121 232.616 68.6001 231.544 67.9761C230.472 67.3521 229.616 66.4401 228.976 65.2401C228.352 64.0241 228.04 62.5521 228.04 60.8241C228.04 59.1121 228.36 57.6481 229 56.4321C229.656 55.2001 230.528 54.2641 231.616 53.6241C232.704 52.9681 233.904 52.6401 235.216 52.6401C236.208 52.6401 237.088 52.8401 237.856 53.2401C238.624 53.6401 239.256 54.1041 239.752 54.6321L238.264 56.4321C237.864 56.0161 237.416 55.6881 236.92 55.4481C236.44 55.1921 235.896 55.0641 235.288 55.0641C234.44 55.0641 233.68 55.2961 233.008 55.7601C232.352 56.2081 231.832 56.8561 231.448 57.7041C231.08 58.5521 230.896 59.5681 230.896 60.7521C230.896 62.5441 231.288 63.9521 232.072 64.9761C232.856 65.9841 233.904 66.4881 235.216 66.4881C235.92 66.4881 236.544 66.3441 237.088 66.0561C237.632 65.7521 238.128 65.3601 238.576 64.8801L240.064 66.6321C239.424 67.3681 238.688 67.9361 237.856 68.3361C237.04 68.7201 236.128 68.9121 235.12 68.9121Z" fill="#F4F4F4"/>
<path d="M261.404 68.6241V52.9281H270.86V55.2801H264.188V59.2881H269.828V61.6401H264.188V66.2721H271.1V68.6241H261.404Z" fill="#F4F4F4"/>
</svg>
