<svg width="27" height="27" viewBox="0 0 27 27" fill="none" xmlns="http://www.w3.org/2000/svg">
<path d="M27 13.5C27 17.0804 25.5777 20.5142 23.0459 23.0459C20.5142 25.5777 17.0804 27 13.5 27C9.91958 27 6.4858 25.5777 3.95406 23.0459C1.42232 20.5142 0 17.0804 0 13.5C0 9.91958 1.42232 6.4858 3.95406 3.95406C6.4858 1.42232 9.91958 0 13.5 0C17.0804 0 20.5142 1.42232 23.0459 3.95406C25.5777 6.4858 27 9.91958 27 13.5ZM13.9843 9.96638C12.6714 10.5131 10.0457 11.6438 6.11044 13.3582C5.47256 13.6114 5.13675 13.8611 5.10638 14.1041C5.05575 14.5142 5.57044 14.6762 6.27075 14.8973L6.56606 14.9901C7.25456 15.2145 8.18269 15.4761 8.66362 15.4862C9.10238 15.4963 9.59006 15.3174 10.1284 14.9462C13.8054 12.4639 15.7039 11.2101 15.822 11.1831C15.9064 11.1628 16.0245 11.1392 16.1021 11.2101C16.1814 11.2793 16.173 11.4126 16.1646 11.448C16.1139 11.6657 14.094 13.5422 13.0494 14.5142C12.7238 14.8179 12.4926 15.0323 12.4453 15.0812C12.3413 15.1875 12.2355 15.2922 12.1281 15.3951C11.4868 16.0127 11.0076 16.4751 12.1534 17.2311C12.7052 17.5956 13.1473 17.8942 13.5878 18.1946C14.067 18.522 14.5462 18.8477 15.1672 19.2561C15.3242 19.3573 15.4761 19.467 15.6229 19.5716C16.1814 19.9699 16.686 20.3276 17.3053 20.2703C17.6664 20.2365 18.0394 19.899 18.2284 18.8865C18.6756 16.4953 19.5548 11.3164 19.7572 9.18169C19.7696 9.00423 19.7622 8.82596 19.7353 8.65012C19.7194 8.50824 19.6508 8.37752 19.5429 8.28394C19.3894 8.17795 19.2063 8.12303 19.0198 8.127C18.5136 8.13544 17.7323 8.40713 13.9843 9.96638Z" fill="#F4F4F4"/>
</svg>
