<svg width="32" height="32" viewBox="0 0 32 32" fill="none" xmlns="http://www.w3.org/2000/svg">
<path fill-rule="evenodd" clip-rule="evenodd" d="M24.5373 6.5107C23.4285 5.39455 22.1092 4.50953 20.6558 3.9069C19.2025 3.30428 17.644 2.99604 16.0707 3.00004C9.47333 3.00004 4.10267 8.36937 4.1 14.9694C4.1 17.0787 4.65067 19.1374 5.69733 20.9534L4 27.1547L10.3453 25.4894C12.1005 26.4448 14.0669 26.9458 16.0653 26.9467H16.0707C22.6667 26.9467 28.0373 21.5774 28.04 14.9774C28.0445 13.4047 27.7373 11.8467 27.1361 10.3935C26.5349 8.94021 25.6516 7.62053 24.5373 6.5107ZM16.0707 24.9267H16.0667C14.2847 24.9269 12.5355 24.4475 11.0027 23.5387L10.64 23.3227L6.87467 24.3107L7.87867 20.64L7.64267 20.264C6.64638 18.6779 6.11898 16.8424 6.12133 14.9694C6.124 9.48404 10.5867 5.02137 16.0747 5.02137C17.3817 5.01847 18.6763 5.27481 19.8835 5.77557C21.0908 6.27633 22.1868 7.01156 23.108 7.9387C24.0342 8.86143 24.7683 9.95856 25.2678 11.1667C25.7674 12.3748 26.0226 13.67 26.0187 14.9774C26.016 20.4627 21.5533 24.9267 16.0707 24.9267ZM21.528 17.4747C21.228 17.324 19.7587 16.6014 19.484 16.5014C19.2107 16.4014 19.012 16.352 18.812 16.6507C18.612 16.9494 18.0387 17.6227 17.864 17.8227C17.6893 18.0227 17.5147 18.0467 17.216 17.8974C16.9173 17.748 15.9533 17.432 14.8107 16.4134C13.9213 15.62 13.3213 14.6414 13.1467 14.3414C12.972 14.0414 13.128 13.88 13.2787 13.7307C13.4133 13.5974 13.5773 13.3814 13.7267 13.2067C13.876 13.032 13.9253 12.908 14.0253 12.708C14.1253 12.508 14.076 12.3334 14 12.184C13.9253 12.0334 13.3267 10.5614 13.0773 9.9627C12.836 9.3827 12.5893 9.46004 12.4053 9.45204C12.2148 9.44424 12.0241 9.44069 11.8333 9.44137C11.6817 9.44524 11.5324 9.48039 11.395 9.54464C11.2576 9.60888 11.1349 9.70082 11.0347 9.8147C10.76 10.1147 9.988 10.8374 9.988 12.3094C9.988 13.7814 11.06 15.204 11.2093 15.404C11.3587 15.604 13.3187 18.624 16.3187 19.92C17.0333 20.228 17.5907 20.412 18.024 20.5507C18.74 20.7787 19.392 20.7454 19.908 20.6694C20.4827 20.584 21.6773 19.9467 21.9267 19.248C22.176 18.5494 22.176 17.9507 22.1013 17.8254C22.0267 17.7 21.8253 17.624 21.528 17.4747Z" fill="#F4F4F4"/>
</svg>
